<svg width="91" height="31" viewBox="0 0 91 31" fill="none" xmlns="http://www.w3.org/2000/svg">
    <path d="M2.29999 17.7382C3.59999 17.7382 4.60001 16.7348 4.60001 15.4305C4.60001 14.1261 3.59999 13.1228 2.29999 13.1228C0.999988 13.1228 0 14.1261 0 15.4305C0 16.7348 0.999988 17.7382 2.29999 17.7382Z" fill="#00A9E0"/>
    <path d="M2.29999 30.4807C3.59999 30.4807 4.60001 29.4774 4.60001 28.1731C4.60001 26.8687 3.59999 25.8654 2.29999 25.8654C0.999988 25.8654 0 26.8687 0 28.1731C0 29.3771 0.999988 30.4807 2.29999 30.4807Z" fill="#00A9E0"/>
    <path d="M15 17.7382C16.3 17.7382 17.3 16.7348 17.3 15.4305C17.3 14.1261 16.3 13.1228 15 13.1228C13.7 13.1228 12.7 14.1261 12.7 15.4305C12.7 16.7348 13.7 17.7382 15 17.7382Z" fill="#00A9E0"/>
    <path d="M15 30.4807C16.3 30.4807 17.3 29.4774 17.3 28.1731C17.3 26.8687 16.3 25.8654 15 25.8654C13.7 25.8654 12.7 26.8687 12.7 28.1731C12.7 29.3771 13.7 30.4807 15 30.4807Z" fill="#00A9E0"/>
    <path d="M27.6 17.7382C28.9 17.7382 29.9 16.7348 29.9 15.4305C29.9 14.1261 28.9 13.1228 27.6 13.1228C26.3 13.1228 25.3 14.1261 25.3 15.4305C25.3 16.7348 26.3 17.7382 27.6 17.7382Z" fill="#00A9E0"/>
    <path d="M2.29999 5.0961C3.59999 5.0961 4.60001 4.09274 4.60001 2.78839C4.60001 1.48405 3.59999 0.480713 2.29999 0.480713C0.999988 0.480713 0 1.48405 0 2.78839C0 4.09274 0.999988 5.0961 2.29999 5.0961Z" fill="#00A9E0"/>
    <path d="M15 5.0961C16.3 5.0961 17.3 4.09274 17.3 2.78839C17.3 1.48405 16.3 0.480713 15 0.480713C13.7 0.480713 12.7 1.48405 12.7 2.78839C12.7 4.09274 13.7 5.0961 15 5.0961Z" fill="#00A9E0"/>
    <path d="M27.6 5.0961C28.9 5.0961 29.9 4.09274 29.9 2.78839C29.9 1.48405 28.9 0.480713 27.6 0.480713C26.3 0.480713 25.3 1.48405 25.3 2.78839C25.3 4.09274 26.3 5.0961 27.6 5.0961Z" fill="#00A9E0"/>
    <path d="M27.6 30.4807C28.9 30.4807 29.9 29.4774 29.9 28.1731C29.9 26.8687 28.9 25.8654 27.6 25.8654C26.3 25.8654 25.3 26.8687 25.3 28.1731C25.3 29.3771 26.3 30.4807 27.6 30.4807Z" fill="#00A9E0"/>
    <path d="M40.2 17.7382C41.5 17.7382 42.5 16.7348 42.5 15.4305C42.5 14.1261 41.5 13.1228 40.2 13.1228C38.9 13.1228 37.9 14.1261 37.9 15.4305C37.9 16.7348 39 17.7382 40.2 17.7382Z" fill="#00A9E0"/>
    <path d="M40.2 30.4807C41.5 30.4807 42.5 29.4774 42.5 28.1731C42.5 26.8687 41.5 25.8654 40.2 25.8654C38.9 25.8654 37.9 26.8687 37.9 28.1731C37.9 29.3771 39 30.4807 40.2 30.4807Z" fill="#00A9E0"/>
    <path d="M40.2 5.0961C41.5 5.0961 42.5 4.09274 42.5 2.78839C42.5 1.48405 41.5 0.480713 40.2 0.480713C38.9 0.480713 37.9 1.48405 37.9 2.78839C37.9 4.09274 39 5.0961 40.2 5.0961Z" fill="#00A9E0"/>
    <path d="M86.8 30.2801C86.9 30.2801 87 30.1798 87 30.0794V19.5443C87 19.444 87 19.444 87.1 19.444H90.1C90.2 19.444 90.3 19.3436 90.3 19.2433V18.1396C90.3 18.0393 90.2 17.939 90.1 17.939H82.2C82.1 17.939 82 18.0393 82 18.1396V19.2433C82 19.3436 82.1 19.444 82.2 19.444H85.1C85.2 19.444 85.2 19.5443 85.2 19.5443V30.0794C85.2 30.1798 85.3 30.2801 85.4 30.2801H86.8ZM74.8 18.0393C74.7 18.0393 74.6 18.1396 74.6 18.24V30.1798C74.6 30.2801 74.7 30.3804 74.8 30.3804H76.2C76.3 30.3804 76.4 30.2801 76.4 30.1798V18.24C76.4 18.1396 76.3 18.0393 76.2 18.0393H74.8ZM66.5 18.0393C66.4 18.0393 66.3 18.1396 66.3 18.24V30.1798C66.3 30.2801 66.4 30.3804 66.5 30.3804H67.9C68 30.3804 68.1 30.2801 68.1 30.1798V18.24C68.1 18.1396 68 18.0393 67.9 18.0393H66.5ZM55.7 19.5443C55.7 19.444 55.8 19.444 55.8 19.444H60.6C60.7 19.444 60.8 19.3436 60.8 19.2433V18.1396C60.8 18.0393 60.7 17.939 60.6 17.939H54.2C54.1 17.939 54 18.0393 54 18.1396V30.0794C54 30.1798 54.1 30.2801 54.2 30.2801H55.6C55.7 30.2801 55.8 30.1798 55.8 30.0794V24.7617H59.6C59.7 24.7617 59.8 24.6614 59.8 24.561V23.4574C59.8 23.357 59.7 23.2567 59.6 23.2567H55.8V19.5443H55.7Z" fill="black"/>
    <path d="M90.9 0.882045C90.9 0.681376 90.8 0.681363 90.7 0.681363H88.4C88.3 0.681363 88.2 0.78171 88.2 0.882045V9.10948C88.2 10.3135 87.5 10.9155 86.2 10.9155C84.9 10.9155 84.2 10.3135 84.2 9.10948V0.882045C84.2 0.681376 84.1 0.681363 84 0.681363H81.7C81.5 0.681363 81.5 0.78171 81.5 0.882045V9.20979C81.5 11.6178 82.8 13.1229 86.2 13.1229C89.5 13.1229 90.9 11.6178 90.9 9.20979V0.882045ZM72.4 12.9222C72.6 12.9222 72.6 12.8218 72.6 12.7215V2.98907C72.6 2.88874 72.6 2.88873 72.7 2.88873H75.6C75.7 2.88873 75.8 2.78839 75.8 2.68805V0.982385C75.8 0.781716 75.7 0.781704 75.6 0.781704H66.9C66.7 0.781704 66.7 0.882051 66.7 0.982385V2.68805C66.7 2.88872 66.8 2.88873 66.9 2.88873H69.7C69.8 2.88873 69.8 2.98907 69.8 2.98907V12.7215C69.8 12.9222 69.9 12.9222 70 12.9222H72.4ZM53.6 12.4205C54.8 13.0225 55.9 13.1229 57.3 13.1229C59.9 13.1229 61.6 11.8185 61.6 9.41047C61.6 7.70479 60.8 6.6011 58.7 5.69809C56.9 4.99575 56.6 4.59443 56.6 3.99242C56.6 3.29008 57.1 2.78839 58.2 2.78839C59 2.78839 59.7 2.88872 60.3 3.18973C60.5 3.29006 60.6 3.18975 60.6 3.08942L61.4 1.48406C61.5 1.38372 61.5 1.28337 61.3 1.18304C60.1 0.681363 59.3 0.480713 57.7 0.480713C55.2 0.480713 53.7 1.98573 53.7 3.99242C53.7 5.79844 54.6 6.90211 56.7 7.80512C58.3 8.50746 58.7 8.90881 58.7 9.61116C58.7 10.3135 58.1 10.8152 57.1 10.8152C55.9 10.8152 55.3 10.6145 54.6 10.2131C54.5 10.1128 54.4 10.2131 54.3 10.3135L53.5 12.1195C53.5 12.2199 53.5 12.3202 53.6 12.4205Z" fill="black"/>
</svg>